<svg xmlns="http://www.w3.org/2000/svg" width="512" height="512" viewBox="0 0 512 512">
  <defs>
    <linearGradient id="grad1" x1="0%" y1="0%" x2="100%" y2="100%">
      <stop offset="0%" style="stop-color:#667eea;stop-opacity:1" />
      <stop offset="100%" style="stop-color:#764ba2;stop-opacity:1" />
    </linearGradient>
  </defs>
  
  <!-- Background -->
  <rect width="512" height="512" rx="100" fill="url(#grad1)"/>
  
  <!-- Clipboard -->
  <rect x="120" y="96" width="272" height="350" rx="20" fill="white" opacity="0.95"/>
  
  <!-- Clip -->
  <rect x="200" y="70" width="112" height="42" rx="20" fill="#5568d3"/>
  
  <!-- Checklist lines -->
  <rect x="160" y="160" width="192" height="20" rx="10" fill="#e2e8f0"/>
  <rect x="160" y="215" width="192" height="20" rx="10" fill="#e2e8f0"/>
  <rect x="160" y="270" width="192" height="20" rx="10" fill="#e2e8f0"/>
  <rect x="160" y="325" width="192" height="20" rx="10" fill="#e2e8f0"/>
  <rect x="160" y="380" width="192" height="20" rx="10" fill="#e2e8f0"/>
  
  <!-- Checkmarks -->
  <path d="M 168 168 L 178 178 L 195 160" stroke="#48bb78" stroke-width="8" fill="none" stroke-linecap="round" stroke-linejoin="round"/>
  <path d="M 168 223 L 178 233 L 195 215" stroke="#48bb78" stroke-width="8" fill="none" stroke-linecap="round" stroke-linejoin="round"/>
  <path d="M 168 278 L 178 288 L 195 270" stroke="#48bb78" stroke-width="8" fill="none" stroke-linecap="round" stroke-linejoin="round"/>
  
  <!-- Sparkles -->
  <circle cx="415" cy="135" r="10" fill="white" opacity="0.9"/>
  <circle cx="440" cy="185" r="8" fill="white" opacity="0.8"/>
  <circle cx="400" cy="215" r="7" fill="white" opacity="0.9"/>
  <circle cx="420" cy="250" r="6" fill="white" opacity="0.85"/>
</svg>
