<svg xmlns="http://www.w3.org/2000/svg" width="192" height="192" viewBox="0 0 192 192">
  <defs>
    <linearGradient id="grad1" x1="0%" y1="0%" x2="100%" y2="100%">
      <stop offset="0%" style="stop-color:#667eea;stop-opacity:1" />
      <stop offset="100%" style="stop-color:#764ba2;stop-opacity:1" />
    </linearGradient>
  </defs>
  
  <!-- Background -->
  <rect width="192" height="192" rx="40" fill="url(#grad1)"/>
  
  <!-- Clipboard -->
  <rect x="46" y="36" width="100" height="130" rx="8" fill="white" opacity="0.95"/>
  
  <!-- Clip -->
  <rect x="76" y="26" width="40" height="16" rx="8" fill="#5568d3"/>
  
  <!-- Checklist lines -->
  <rect x="60" y="60" width="72" height="8" rx="4" fill="#e2e8f0"/>
  <rect x="60" y="80" width="72" height="8" rx="4" fill="#e2e8f0"/>
  <rect x="60" y="100" width="72" height="8" rx="4" fill="#e2e8f0"/>
  <rect x="60" y="120" width="72" height="8" rx="4" fill="#e2e8f0"/>
  <rect x="60" y="140" width="72" height="8" rx="4" fill="#e2e8f0"/>
  
  <!-- Checkmarks -->
  <path d="M 63 63 L 67 67 L 73 60" stroke="#48bb78" stroke-width="3" fill="none" stroke-linecap="round" stroke-linejoin="round"/>
  <path d="M 63 83 L 67 87 L 73 80" stroke="#48bb78" stroke-width="3" fill="none" stroke-linecap="round" stroke-linejoin="round"/>
  <path d="M 63 103 L 67 107 L 73 100" stroke="#48bb78" stroke-width="3" fill="none" stroke-linecap="round" stroke-linejoin="round"/>
  
  <!-- Sparkle -->
  <circle cx="155" cy="50" r="4" fill="white" opacity="0.9"/>
  <circle cx="165" cy="70" r="3" fill="white" opacity="0.8"/>
  <circle cx="150" cy="80" r="2.5" fill="white" opacity="0.9"/>
</svg>
